<svg viewBox="0 0 400 260" fill="none" xmlns="http://www.w3.org/2000/svg">
  <!-- BG map-like surface -->
  <rect x="20" y="30" width="360" height="210" rx="20" fill="#f0fdf4" opacity="0.7"/>
  <rect x="20" y="30" width="360" height="210" rx="20" fill="none" stroke="#bbf7d0" stroke-width="2"/>
  <!-- Road network -->
  <path d="M20 140 L380 140" stroke="#d1d5db" stroke-width="8" opacity="0.5"/>
  <path d="M200 30 L200 240" stroke="#d1d5db" stroke-width="8" opacity="0.5"/>
  <path d="M20 140 L380 140" stroke="white" stroke-width="2" stroke-dasharray="12 8" opacity="0.8"/>
  <path d="M200 30 L200 240" stroke="white" stroke-width="2" stroke-dasharray="12 8" opacity="0.8"/>
  <!-- Secondary roads -->
  <path d="M20 80 Q120 75 200 80" stroke="#e5e7eb" stroke-width="4" opacity="0.6"/>
  <path d="M200 80 Q280 75 380 80" stroke="#e5e7eb" stroke-width="4" opacity="0.6"/>
  <path d="M100 140 L100 240" stroke="#e5e7eb" stroke-width="4" opacity="0.6"/>
  <path d="M300 30 L300 140" stroke="#e5e7eb" stroke-width="4" opacity="0.6"/>
  <!-- PHC building -->
  <rect x="55" y="92" width="52" height="40" rx="4" fill="#86efac"/>
  <rect x="55" y="92" width="52" height="40" rx="4" fill="none" stroke="#22c55e" stroke-width="1.5"/>
  <rect x="62" y="82" width="38" height="14" rx="3" fill="#4ade80"/>
  <!-- PHC cross -->
  <rect x="76" y="104" width="20" height="5" rx="2.5" fill="white"/>
  <rect x="83" y="97" width="5" height="20" rx="2.5" fill="white"/>
  <text x="81" y="144" text-anchor="middle" font-size="8" font-weight="700" fill="#166534">PHC</text>
  <!-- CHC building (bigger) -->
  <rect x="215" y="55" width="70" height="70" rx="5" fill="#93c5fd"/>
  <rect x="215" y="55" width="70" height="70" rx="5" fill="none" stroke="#3b82f6" stroke-width="1.5"/>
  <rect x="222" y="44" width="56" height="16" rx="3" fill="#60a5fa"/>
  <rect x="228" y="14" width="44" height="12" rx="3" fill="#3b82f6"/>
  <!-- CHC cross -->
  <rect x="240" y="78" width="30" height="7" rx="3.5" fill="white"/>
  <rect x="247" y="68" width="7" height="28" rx="3.5" fill="white"/>
  <!-- Windows -->
  <rect x="222" y="88" width="14" height="14" rx="2" fill="white" opacity="0.7"/>
  <rect x="242" y="88" width="14" height="14" rx="2" fill="white" opacity="0.7"/>
  <rect x="264" y="88" width="14" height="14" rx="2" fill="white" opacity="0.7"/>
  <text x="250" y="136" text-anchor="middle" font-size="9" font-weight="700" fill="#1d4ed8">CHC</text>
  <!-- District Hospital (largest) -->
  <rect x="290" y="148" width="80" height="75" rx="5" fill="#c084fc"/>
  <rect x="290" y="148" width="80" height="75" rx="5" fill="none" stroke="#9333ea" stroke-width="1.5"/>
  <rect x="298" y="135" width="64" height="17" rx="3" fill="#a855f7"/>
  <!-- Hospital cross red -->
  <circle cx="330" cy="175" r="16" fill="#ef4444"/>
  <rect x="323" y="172" width="14" height="5" rx="2.5" fill="white"/>
  <rect x="327" y="167" width="5" height="15" rx="2.5" fill="white"/>
  <text x="330" y="232" text-anchor="middle" font-size="9" font-weight="700" fill="#6b21a8">Hospital</text>
  <!-- Location pin for PHC (nearest) -->
  <path d="M81 60 C81 46 94 36 100 46 C106 36 119 46 119 60 C119 72 100 88 100 88 C100 88 81 72 81 60Z" fill="#ec4899"/>
  <circle cx="100" cy="60" r="8" fill="white"/>
  <circle cx="100" cy="60" r="4" fill="#ec4899"/>
  <!-- Distance badge -->
  <rect x="48" y="58" width="42" height="16" rx="8" fill="white" stroke="#ec4899" stroke-width="1.5"/>
  <text x="69" y="69" text-anchor="middle" font-size="8" font-weight="700" fill="#ec4899">0.8 km</text>
  <!-- User location dot -->
  <circle cx="155" cy="160" r="10" fill="#ec4899" opacity="0.2"/>
  <circle cx="155" cy="160" r="7" fill="#ec4899" opacity="0.4"/>
  <circle cx="155" cy="160" r="4" fill="#ec4899"/>
  <circle cx="155" cy="160" r="2" fill="white"/>
  <!-- Distance lines -->
  <path d="M155 160 L98 88" stroke="#ec4899" stroke-width="1.5" stroke-dasharray="5 4" opacity="0.5"/>
  <path d="M155 160 L250 125" stroke="#3b82f6" stroke-width="1.5" stroke-dasharray="5 4" opacity="0.4"/>
  <path d="M155 160 L310 185" stroke="#9333ea" stroke-width="1.5" stroke-dasharray="5 4" opacity="0.3"/>
  <!-- Ambulance -->
  <rect x="40" y="148" width="42" height="22" rx="5" fill="white" stroke="#ef4444" stroke-width="2"/>
  <rect x="40" y="148" width="28" height="22" rx="5" fill="#fef2f2"/>
  <rect x="68" y="150" width="14" height="18" rx="3" fill="#fee2e2"/>
  <circle cx="50" cy="172" r="5" fill="#6b7280"/>
  <circle cx="50" cy="172" r="2.5" fill="#d1d5db"/>
  <circle cx="72" cy="172" r="5" fill="#6b7280"/>
  <circle cx="72" cy="172" r="2.5" fill="#d1d5db"/>
  <rect x="44" y="154" width="10" height="6" rx="1" fill="#93c5fd"/>
  <rect x="50" y="156" width="4" height="3" rx="0.5" fill="#ef4444"/>
  <rect x="52" y="154" width="3" height="7" rx="0.5" fill="#ef4444"/>
</svg>
