<svg viewBox="0 0 400 260" fill="none" xmlns="http://www.w3.org/2000/svg">
  <!-- BG -->
  <ellipse cx="200" cy="260" rx="180" ry="18" fill="#d1fae5" opacity="0.3"/>
  <ellipse cx="320" cy="50" rx="65" ry="55" fill="#ecfdf5" opacity="0.7"/>
  <ellipse cx="80" cy="200" rx="55" ry="45" fill="#fef3c7" opacity="0.6"/>
  <!-- Plate base -->
  <ellipse cx="200" cy="175" rx="110" ry="68" fill="white"/>
  <ellipse cx="200" cy="175" rx="110" ry="68" fill="none" stroke="#d1fae5" stroke-width="3"/>
  <ellipse cx="200" cy="175" rx="88" ry="54" fill="#f0fdf4"/>
  <!-- Food items on plate -->
  <!-- Dal bowl -->
  <ellipse cx="175" cy="165" rx="30" ry="18" fill="#fcd34d"/>
  <ellipse cx="175" cy="160" rx="28" ry="14" fill="#fbbf24"/>
  <ellipse cx="175" cy="158" rx="24" ry="10" fill="#f59e0b" opacity="0.7"/>
  <!-- Spinach / greens -->
  <ellipse cx="220" cy="180" rx="22" ry="14" fill="#4ade80"/>
  <path d="M205 178 Q215 170 225 175 Q232 170 235 180" fill="#22c55e"/>
  <!-- Roti -->
  <ellipse cx="165" cy="190" rx="20" ry="12" fill="#fef3c7"/>
  <ellipse cx="165" cy="188" rx="17" ry="9" fill="#fde68a"/>
  <!-- Curd -->
  <ellipse cx="228" cy="162" rx="15" ry="10" fill="white"/>
  <ellipse cx="228" cy="160" rx="12" ry="7" fill="#f1f5f9"/>
  <!-- Fork -->
  <path d="M305 120 L305 200" stroke="#9ca3af" stroke-width="3" stroke-linecap="round"/>
  <path d="M298 125 L298 145" stroke="#9ca3af" stroke-width="2" stroke-linecap="round"/>
  <path d="M305 125 L305 145" stroke="#9ca3af" stroke-width="2" stroke-linecap="round"/>
  <path d="M312 125 L312 145" stroke="#9ca3af" stroke-width="2" stroke-linecap="round"/>
  <path d="M298 145 Q305 155 312 145" stroke="#9ca3af" stroke-width="2" fill="none"/>
  <!-- Nutrient labels floating -->
  <rect x="30" y="80" width="72" height="26" rx="13" fill="#fce7f3"/>
  <text x="66" y="97" text-anchor="middle" font-size="10" font-weight="700" fill="#be185d">🩸 Iron</text>
  <rect x="28" y="115" width="80" height="26" rx="13" fill="#dbeafe"/>
  <text x="68" y="132" text-anchor="middle" font-size="10" font-weight="700" fill="#1d4ed8">🦴 Calcium</text>
  <rect x="30" y="150" width="90" height="26" rx="13" fill="#d1fae5"/>
  <text x="75" y="167" text-anchor="middle" font-size="10" font-weight="700" fill="#065f46">🌿 Folic Acid</text>
  <rect x="300" y="60" width="85" height="26" rx="13" fill="#fef3c7"/>
  <text x="342" y="77" text-anchor="middle" font-size="10" font-weight="700" fill="#92400e">💪 Protein</text>
  <rect x="305" y="95" width="75" height="26" rx="13" fill="#ede9fe"/>
  <text x="342" y="112" text-anchor="middle" font-size="10" font-weight="700" fill="#5b21b6">☀️ Vit D</text>
  <!-- Arrow lines from labels to plate -->
  <path d="M102 93 Q135 120 160 155" stroke="#f9a8d4" stroke-width="1.5" stroke-dasharray="4 3" fill="none" opacity="0.6"/>
  <path d="M108 128 Q145 148 165 165" stroke="#93c5fd" stroke-width="1.5" stroke-dasharray="4 3" fill="none" opacity="0.6"/>
  <!-- Milk glass -->
  <rect x="340" y="150" width="32" height="42" rx="6" fill="white" stroke="#e5e7eb" stroke-width="2"/>
  <rect x="343" y="153" width="26" height="20" rx="3" fill="#f0f9ff"/>
  <ellipse cx="356" cy="153" rx="16" ry="5" fill="#bfdbfe"/>
  <text x="356" y="215" text-anchor="middle" font-size="9" fill="#6b7280">Milk</text>
  <!-- Supplement pill -->
  <ellipse cx="360" cy="110" rx="18" ry="9" fill="#a78bfa"/>
  <line x1="360" y1="101" x2="360" y2="119" stroke="white" stroke-width="2"/>
  <text x="360" y="127" text-anchor="middle" font-size="8" fill="#6b7280">Supplement</text>
</svg>
